<svg xmlns="http://www.w3.org/2000/svg" viewBox="0 0 750 1334" width="750" height="1334">
  <defs>
    <linearGradient id="autumnGradM" x1="0%" y1="0%" x2="100%" y2="100%">
      <stop offset="0%" style="stop-color:#8B4513;stop-opacity:1" />
      <stop offset="30%" style="stop-color:#CD5C0C;stop-opacity:1" />
      <stop offset="60%" style="stop-color:#D2691E;stop-opacity:1" />
      <stop offset="100%" style="stop-color:#E8952F;stop-opacity:1" />
    </linearGradient>
    <radialGradient id="autumnGlowM" cx="30%" cy="35%" r="40%">
      <stop offset="0%" style="stop-color:#FFD700;stop-opacity:0.2" />
      <stop offset="100%" style="stop-color:#FFD700;stop-opacity:0" />
    </radialGradient>
    <filter id="autumnShadowM" x="-5%" y="-5%" width="110%" height="110%">
      <feDropShadow dx="0" dy="3" stdDeviation="6" flood-color="#000000" flood-opacity="0.35"/>
    </filter>
  </defs>
  <rect width="750" height="1334" fill="url(#autumnGradM)"/>
  <rect width="750" height="1334" fill="url(#autumnGlowM)"/>
  <ellipse cx="600" cy="250" rx="55" ry="28" fill="#FFD700" opacity="0.12" transform="rotate(-30 600 250)"/>
  <ellipse cx="100" cy="900" rx="45" ry="22" fill="#FF8C00" opacity="0.1" transform="rotate(20 100 900)"/>
  <ellipse cx="500" cy="1100" rx="35" ry="18" fill="#FFD700" opacity="0.08" transform="rotate(-15 500 1100)"/>
  <ellipse cx="200" cy="300" rx="30" ry="15" fill="#FF8C00" opacity="0.1" transform="rotate(35 200 300)"/>
  <text x="375" y="620" font-family="Georgia, 'Times New Roman', serif" font-size="80" font-weight="bold" fill="#FFF8DC" text-anchor="middle" filter="url(#autumnShadowM)">AUTUMN</text>
  <text x="375" y="690" font-family="Georgia, 'Times New Roman', serif" font-size="28" fill="#FFF8DC" text-anchor="middle" opacity="0.85">Ukiyo - Seasonal Collection</text>
  <path d="M0,1220 Q187,1185 375,1220 Q562,1255 750,1220 L750,1334 L0,1334 Z" fill="#5C3317" opacity="0.2"/>
</svg>
