<svg xmlns="http://www.w3.org/2000/svg" viewBox="0 0 750 1334" width="750" height="1334">
  <defs>
    <linearGradient id="winterGradM" x1="0%" y1="0%" x2="100%" y2="100%">
      <stop offset="0%" style="stop-color:#1B3A5C;stop-opacity:1" />
      <stop offset="30%" style="stop-color:#2E6B9E;stop-opacity:1" />
      <stop offset="60%" style="stop-color:#4A90C4;stop-opacity:1" />
      <stop offset="100%" style="stop-color:#87CEEB;stop-opacity:1" />
    </linearGradient>
    <radialGradient id="winterGlowM" cx="50%" cy="25%" r="45%">
      <stop offset="0%" style="stop-color:#FFFFFF;stop-opacity:0.15" />
      <stop offset="100%" style="stop-color:#FFFFFF;stop-opacity:0" />
    </radialGradient>
    <filter id="winterShadowM" x="-5%" y="-5%" width="110%" height="110%">
      <feDropShadow dx="0" dy="3" stdDeviation="6" flood-color="#0A1628" flood-opacity="0.4"/>
    </filter>
  </defs>
  <rect width="750" height="1334" fill="url(#winterGradM)"/>
  <rect width="750" height="1334" fill="url(#winterGlowM)"/>
  <!-- Snowflake-like dots -->
  <circle cx="100" cy="150" r="3" fill="#FFFFFF" opacity="0.5"/>
  <circle cx="300" cy="250" r="4" fill="#FFFFFF" opacity="0.4"/>
  <circle cx="500" cy="120" r="3" fill="#FFFFFF" opacity="0.35"/>
  <circle cx="650" cy="350" r="4" fill="#FFFFFF" opacity="0.45"/>
  <circle cx="200" cy="450" r="3" fill="#FFFFFF" opacity="0.3"/>
  <circle cx="450" cy="550" r="4" fill="#FFFFFF" opacity="0.25"/>
  <circle cx="600" cy="680" r="3" fill="#FFFFFF" opacity="0.35"/>
  <circle cx="150" cy="750" r="4" fill="#FFFFFF" opacity="0.3"/>
  <circle cx="350" cy="850" r="3" fill="#FFFFFF" opacity="0.4"/>
  <circle cx="550" cy="950" r="4" fill="#FFFFFF" opacity="0.25"/>
  <circle cx="100" cy="1050" r="3" fill="#FFFFFF" opacity="0.3"/>
  <circle cx="400" cy="1100" r="4" fill="#FFFFFF" opacity="0.35"/>
  <circle cx="650" cy="1150" r="3" fill="#FFFFFF" opacity="0.2"/>
  <circle cx="250" cy="1200" r="4" fill="#FFFFFF" opacity="0.3"/>
  <!-- Season text -->
  <text x="375" y="620" font-family="Georgia, 'Times New Roman', serif" font-size="80" font-weight="bold" fill="#FFFFFF" text-anchor="middle" filter="url(#winterShadowM)">WINTER</text>
  <text x="375" y="690" font-family="Georgia, 'Times New Roman', serif" font-size="28" fill="#FFFFFF" text-anchor="middle" opacity="0.85">Ukiyo - Seasonal Collection</text>
  <!-- Snow ground -->
  <path d="M0,1240 Q187,1215 375,1240 Q562,1265 750,1240 L750,1334 L0,1334 Z" fill="#FFFFFF" opacity="0.2"/>
  <path d="M0,1280 Q187,1265 375,1280 Q562,1295 750,1280 L750,1334 L0,1334 Z" fill="#FFFFFF" opacity="0.15"/>
</svg>
